<svg xmlns="http://www.w3.org/2000/svg" viewBox="0 0 512 512" role="img" aria-label="GameStudy">
  <rect width="512" height="512" rx="112" fill="#070912"/>
  <rect x="34" y="34" width="444" height="444" rx="92" fill="none" stroke="#00e5ff" stroke-width="18"/>
  <path d="M122 318c0-73 38-124 94-124h80c56 0 94 51 94 124 0 42-19 66-49 66-22 0-36-15-49-38h-72c-13 23-27 38-49 38-30 0-49-24-49-66Z" fill="#111a2f" stroke="#ff2bd6" stroke-width="18" stroke-linejoin="round"/>
  <path d="M178 277h58M207 248v58" stroke="#9cff3f" stroke-width="20" stroke-linecap="round"/>
  <circle cx="306" cy="274" r="16" fill="#00e5ff"/>
  <circle cx="350" cy="306" r="16" fill="#ff2bd6"/>
  <path d="M160 142h192" stroke="#ffffff" stroke-width="26" stroke-linecap="round"/>
  <path d="M202 110h108" stroke="#00e5ff" stroke-width="16" stroke-linecap="round"/>
</svg>
